<?xml version="1.0" encoding="UTF-8"?>
<!DOCTYPE svg PUBLIC "-//W3C//DTD SVG 1.1//EN" "http://www.w3.org/Graphics/SVG/1.1/DTD/svg11.dtd">
<!-- Creator: CorelDRAW 2021.5 -->
<svg xmlns="http://www.w3.org/2000/svg" xml:space="preserve" width="7.5in" height="2.264in" version="1.1" style="shape-rendering:geometricPrecision; text-rendering:geometricPrecision; image-rendering:optimizeQuality; fill-rule:evenodd; clip-rule:evenodd"
viewBox="0 0 7500 2264"
 xmlns:xlink="http://www.w3.org/1999/xlink"
 xmlns:xodm="http://www.corel.com/coreldraw/odm/2003">
 <defs>
  <style type="text/css">
   <![CDATA[
    .str0 {stroke:white;stroke-width:69.44;stroke-miterlimit:2.61313}
    .fil1 {fill:#B3B3B3}
    .fil0 {fill:#FF8400}
    .fil2 {fill:white}
   ]]>
  </style>
 </defs>
 <g id="Layer_x0020_1">
  <metadata id="CorelCorpID_0Corel-Layer"/>
  <g id="_2002886502320">
   <path class="fil0" d="M1232.93 975.21c22.07,-7.71 40.31,13.3 31.11,38.09 -46.32,124.83 -178.57,224.86 -315.77,248.58 -95.42,16.5 -196.51,-4.13 -269.68,-44.19 -72.35,-39.61 -124.16,-91.23 -163.55,-158 -8.66,-14.69 -27.49,-39.67 -17.37,-60.25 10.33,-21 39.15,-16.31 49.92,5.95 36.17,74.76 85.73,123.59 157.31,164.36 168.95,96.23 397.71,30.71 494.28,-147.66 18.02,-33.29 13.15,-39.68 33.74,-46.87zm-8.53 -290.33c69.85,-20.83 94.8,83.84 29.77,100.5 -71.13,18.22 -90,-82.54 -29.77,-100.5zm-720.13 0.97c68.15,-23.91 97.85,79.19 32.48,99.19 -65.17,19.94 -96.87,-76.59 -32.48,-99.19zm144.05 -285.42c0,-118.66 101.92,-256.2 215.31,-256.2l32.7 0c64.3,0 127.18,50.01 155.41,87.16 30.93,40.7 62.63,108.5 62.63,179.94l-466.06 0 0 -10.9zm-92.67 10.9l-299.8 0c-46.34,0 -30.9,53.52 -29.89,87.12 0.41,13.74 -1.19,29.92 0.31,43.3l18.64 401.07c-0.12,17.54 2.42,23.52 2.85,38.04 0.43,14.24 -1.27,28.95 0.65,42.95l15.7 319.52c1.81,59.98 0.93,102.25 26.71,139.56 22.51,32.56 57.83,56.78 112.2,56.78l-32.7 0c325.24,0 650.48,0 975.72,0 49.47,0 79,-14.9 104.28,-40.18 38.56,-38.56 35.29,-61.81 41.34,-103.12l17.78 -344.71c0.93,-11.29 -0.48,-23.94 0.13,-35.3l22.56 -451.67c2.34,-17.04 8.06,-124.91 4.66,-134.12 -7.56,-20.43 -24.12,-19.33 -51.73,-19.26l-253.52 0.06c-17.69,0.24 -25.87,4.65 -27.42,-10.74 -5.01,-49.68 -5.26,-67.35 -24.7,-119.75 -37.83,-101.91 -113.83,-182.93 -220.01,-216.06 -94.52,-29.49 -196.15,-0.75 -271.03,62.2 -78.95,66.38 -132.7,181.83 -132.7,284.3z"/>
   <path class="fil0" d="M2556.17 746.57c0,-72.79 -106.78,-102.19 -153.35,-49.79 -11.93,13.41 -23.8,39.11 -23.8,63.41l0 487.86c0,49.76 26.96,87.22 76.31,87.22 31.14,0 60.82,1.24 83.04,-25.99 15.15,-18.57 17.94,-34.38 17.82,-66.67 -0.26,-66.27 -2.66,-285.25 2.65,-335.31 7.74,-73.09 91.86,-109.78 143.92,-56.57 42.38,43.32 27.85,146.89 27.85,222.89 0,55.41 0.2,110.86 -0.01,166.26 -0.14,37.21 7.36,70.41 39.44,85.93 39.15,18.94 140.53,22.89 140.54,-80.39 0.01,-91.22 -3.79,-256.96 -0.15,-338.11 0.93,-20.78 14.98,-47.26 26.56,-57.93 45,-41.48 129.15,-31.88 143.75,59.43 4.5,28.14 1.63,281.03 1.44,331.07 -0.14,37.14 7.59,70.53 39.44,85.93 39.93,19.31 140.45,21.66 140.45,-77.76l0 -354.31c0,-84.68 -30.79,-164.39 -99,-200.8 -64.36,-34.35 -149.52,-29.26 -209.53,6.74 -51.97,31.17 -56.7,56.87 -70.31,60.51 -9.7,-41.65 -74.37,-92.67 -133.55,-92.67 -61.04,0 -89.17,9.34 -139.87,37.29l-36.15 26.54c-7.59,5.96 -10.17,10.31 -17.5,15.22z"/>
   <path class="fil0" d="M4758.37 664.8c0,70.24 9.55,104.97 52.17,157.7 26.85,33.22 63.34,58.39 101.61,81 31.39,18.56 88.5,46.03 122.3,60.3l57.28 32.67c8.15,5.99 18.72,13.75 24.96,21.37 34.26,41.9 13.75,115.88 -61.09,134.95 -96.04,24.48 -148.76,-46.47 -210,-46.47 -30.73,0 -52.32,0.98 -74.39,23.72 -13.37,13.77 -21,37.49 -21,63.49 0,84.48 94.13,121.4 160.44,142.09 96.78,30.2 239.02,12.25 315.69,-52.98 71.7,-61 104.4,-131.33 104.4,-233.56 0,-135.23 -106.29,-203.09 -212.59,-256.2 -33.61,-16.8 -102.96,-44.76 -128.68,-62.1 -18.91,-12.75 -37.57,-27.35 -37.57,-57.82 0,-84.51 107.53,-71.34 158.1,-35.46 24.34,17.27 30.22,26.99 67.76,33.28 77.7,13.02 181.92,-118.67 14.88,-211.3 -171.15,-94.91 -374.73,-23.81 -424.98,149.15 -4.92,16.91 -9.26,35.93 -9.26,56.15z"/>
   <path class="fil0" d="M2131 1054.55c0,51.27 -22.56,81.52 -69.8,96.46 -97.05,30.69 -156.73,-44.67 -213.65,-44.67 -58.98,0 -98.12,15.69 -98.12,89.94 0,28.18 9.9,51.17 27.85,70.27 11.44,12.17 41.89,31.31 58.42,39.7 98.96,50.22 216.76,58.29 321.03,16.6 37.44,-14.97 61.05,-34.61 89.2,-57.97 6.78,-5.62 9.67,-11.62 16.57,-18.85 43.21,-45.25 67.46,-126.65 67.46,-191.47 0,-120.24 -74.8,-181.88 -151.08,-227.76 -73.39,-44.13 -139.1,-64.56 -188.79,-94.66 -63.95,-38.74 -46.45,-121.83 23.71,-121.83 102.72,0 93.08,51.59 163.11,60.6 78.89,10.14 161.59,-104.99 46.01,-190.68 -124.69,-92.44 -315.32,-87.52 -411.6,42.08 -6.39,8.59 -10.33,13.38 -15.76,22.4 -42.89,71.31 -52.29,146.8 -21.27,223.33 66.66,164.44 356.7,192.47 356.7,286.52z"/>
   <path class="fil0" d="M6865.17 1019.11c0,-94.3 36.57,-190.78 130.83,-190.78 145.43,0 151.99,373.39 2.72,373.39 -51.2,0 -81.24,-21.72 -103.48,-60.05 -17.2,-29.64 -30.07,-75.72 -30.07,-122.56zm-168.98 -267.09l0 744.06c0,121.21 162.49,113.53 163.64,-2.61 0.56,-56.2 -0.11,-112.83 -0.11,-169.09 33.28,8.89 33.63,32.7 144.45,32.7 76.96,0 151.61,-48.14 194.31,-105.48 64.96,-87.23 89.61,-222.95 61.91,-336.07 -33.24,-135.74 -111.19,-236.22 -256.04,-248.21 -62,-5.13 -105.55,14.91 -152.81,46.56 -15.22,-65.32 -155.35,-73.67 -155.35,38.16z"/>
   <path class="fil0" d="M4194.19 814.7c60.82,0 100.84,45.11 100.84,106.29l-209.86 0c0,-62.04 51.7,-106.29 109.02,-106.29zm-299.81 182.61c0,199.66 119.39,351.59 324.33,351.59 62.3,0 123.76,-20.29 163.04,-44.1 35.41,-21.46 95.88,-68.79 95.88,-113.98 0,-22.22 0.36,-43.48 -16.93,-62.11 -56.04,-60.43 -134.21,28.63 -189.57,43.67 -88.76,24.12 -194.15,-28.9 -194.15,-128.74l278 0c59.76,0 125.37,-5.14 125.37,-79.04 0,-88.09 -15.56,-167.02 -77,-228.26 -26.07,-25.98 -45,-41.34 -82.61,-56.39 -162.98,-65.17 -343.27,2.3 -402.88,182.76 -13.15,39.81 -23.49,83.07 -23.49,134.59z"/>
   <path class="fil0" d="M5420.66 536.7l0 733.16c0,96.29 105.46,100.85 142.47,60.71 15.26,-16.55 21.28,-37.63 21.09,-68.85 -0.33,-56.06 -4,-316.76 3.3,-351.02 22.11,-103.74 167.74,-109.93 191.41,0.89 5.29,24.74 0.78,297.96 1.39,350.2 1.56,133.3 163.64,109.5 163.64,16.24l0 -378.84c0,-58.87 -32.42,-121.54 -74.24,-160.16l-32.19 -25.04c-58.67,-37.43 -137.78,-56.8 -206.72,-35.28 -7.7,2.4 -15.79,5.13 -23.92,8.79l-22.7 10.01c0,-52.73 0.1,-105.46 0.1,-158.17 -0,-26.85 -6.59,-45.08 -18.69,-60.35 -36.35,-45.87 -144.93,-39.28 -144.93,57.72z"/>
   <path class="fil0" d="M6191.97 1019.11c0,-56.87 1.83,-93.94 32.13,-142.3 34.28,-54.72 130.1,-84.36 187.12,10.27 65.57,108.82 37.87,311.91 -82.97,311.91l-16.35 0c-76.03,0 -119.93,-101.13 -119.93,-179.88zm-166.25 -32.7c0,78.15 -0.37,97.24 25.52,173.44 56.56,166.47 234.27,243.19 393.34,169.11 118.93,-55.38 167.11,-190.56 167.11,-320.74 0,-118.95 -55.34,-244.72 -158.57,-307.49 -23.95,-14.56 -57.51,-25.54 -86.69,-30.51 -52.64,-8.97 -116.73,-3.24 -164.5,20.91 -72.63,36.72 -117.12,87.19 -148.22,165.21 -12.97,32.55 -28.01,86.24 -28.01,130.07z"/>
   <path class="fil0" d="M3624.56 484.92l0 774.04c0,44.29 32.02,76.31 76.31,76.31 32.43,0 62.59,1.3 84.98,-26.77 13.62,-17.07 18.59,-41.41 18.59,-71.35l0 -733.16c0,-66.17 -29.7,-98.12 -95.39,-98.12 -49.12,0 -84.49,30.97 -84.49,79.04z"/>
   <path class="fil0" d="M3362.92 754.74l0 501.49c0,45.7 33.18,79.04 79.04,79.04l24.53 0c43.26,0 76.31,-33.06 76.31,-76.31l0 -504.22c0,-105.44 -179.88,-107.43 -179.88,0z"/>
   <path class="fil1" d="M4014.31 1899.45c0,-43.32 1,-84.62 29.5,-120.4 60.12,-75.45 199.44,-36.51 199.44,84.96 0,52.79 3.54,84.27 -29.91,128.17 -52.62,69.05 -199.03,49.81 -199.03,-92.74zm-87.22 -27.26c0,65.2 9.13,125.28 56.54,172.4 56.95,56.62 145.2,69.3 225.93,41.93 11.61,-3.93 24.57,-9.93 33.59,-15.47l29.31 -22.48c33.12,-30.11 58,-94.32 58,-140.96 0,-69.11 -2.32,-124.06 -53.05,-178.61 -59.16,-63.62 -171.25,-69.84 -244.86,-37.54 -22.46,9.85 -37.99,24.73 -54.4,41 -27.57,27.35 -51.06,85.31 -51.06,139.72z"/>
   <path class="fil1" d="M5884 1779.53c0,46.22 10.57,78 53.61,101.74 75.91,41.89 175.98,28.02 181.57,90.74 4.64,52.21 -47.87,63.72 -90.73,63.72 -31.78,0 -52.97,-17.25 -64.53,-39.04 -17.62,-33.23 -17.03,-56.35 -55.39,-56.35 -21.86,0 -32.7,20.14 -32.7,43.61 0,16.02 12.67,40.81 19.52,51.34 6.59,10.13 26.18,30.03 36.52,37.07 14.09,9.61 31.71,16.09 49.86,21 36.72,9.93 92.03,7.83 126.15,-2.74 15.7,-4.86 37.83,-15.37 49.15,-24.44 12.14,-9.72 25.77,-25.4 33.89,-39.7 16.48,-29.03 18.35,-70.54 6.2,-102.17 -10.15,-26.41 -25.91,-41.7 -51.41,-54.88 -13.6,-7.02 -23.25,-10.89 -38.54,-15.97 -48.22,-15.98 -144.11,-28.33 -144.11,-68.48 0,-60.61 95.56,-60.85 123.43,-36.2 23.5,20.79 31.42,73.82 68.44,64.76 71,-17.37 15.86,-140.3 -96.47,-140.3 -60.67,0 -122.85,2.67 -160.38,60.39 -6.7,10.3 -14.06,29.36 -14.06,45.9z"/>
   <path class="fil1" d="M3499.19 1943.06c0,-32.09 11.1,-70.98 35.82,-86.83 81.1,-52 140.4,77.3 91.83,151.8 -34.87,53.5 -127.65,40.18 -127.65,-64.97zm147.18 -114.47c-40.44,-27.08 -28.98,-40.88 -111.74,-40.88 -69.59,0 -114.47,71.71 -114.47,147.18 0,122.78 82.24,185.07 160.57,160.58 17.24,-5.39 22.5,-7.79 36.81,-17.7 12.36,-8.56 17.69,-18.23 28.82,-25.69 2.06,24.69 10.53,46.02 36.12,47.8 23.15,1.61 40.19,-17.53 40.19,-42.35l0 -343.41c0,-32.95 -19.35,-40.88 -43.61,-40.88 -26.11,0 -32.78,32.44 -32.8,59.87 -0.02,31.82 0.09,63.66 0.09,95.48z"/>
   <path class="fil1" d="M7036.88 1945.78c0,-25.72 6.52,-53.82 17.45,-69.76 18.85,-27.48 54.01,-39.57 86.29,-23.07 9.92,5.07 15.54,10.5 21.71,19.17 37.74,53 19.91,166.34 -49.15,166.34 -52.06,0 -76.31,-48.66 -76.31,-92.67zm-79.04 -103.57c0,50.83 -3.75,315.32 4.28,347.3 8.22,32.71 54.2,29.83 66.22,3.93 5.63,-12.11 5.92,-25.76 5.83,-43.24 -0.18,-32.7 -0.02,-65.44 -0.02,-98.14 24.47,16.39 22.54,29.85 60.84,42.72 28.18,9.47 63.46,5.17 87.3,-6.32 88.74,-42.75 100.44,-182.73 45.43,-254.51 -41.88,-54.63 -128.68,-63.63 -176.59,-15.66 -6.26,6.26 -9.98,11.04 -16.98,15.73 0,-64.44 -76.31,-70.44 -76.31,8.17z"/>
   <path class="fil1" d="M6265.56 1719.57l0 337.96c0,14.2 7.87,31.63 17.56,36.97 12.06,6.65 29.34,6.99 41.47,0.27 59.16,-32.77 -38.7,-247.1 90.87,-247.1 95.85,0 8.53,222.39 68.05,248.18 28.18,12.2 57.33,-6.51 57.33,-38.32l0 -163.53c0,-94.91 -82.46,-123.97 -144.52,-100.91 -32.01,11.9 -37.88,26.23 -51.72,35.49 0,-21.91 3.55,-118.43 -4.5,-134.49 -16.02,-31.96 -74.54,-32.09 -74.54,25.48z"/>
   <path class="fil1" d="M3223.92 1842.21c23.11,0 42.23,0.13 58.96,22.81 14.87,20.16 12.55,40.77 17.35,50.78l-136.27 0c0,-35.46 24.91,-73.59 59.96,-73.59zm-141.73 95.39c0,153.12 131.13,185.19 225.87,149.56 61.74,-23.22 88.06,-95.05 33.05,-95.05 -25.76,0 -63.04,79 -133.15,48.66 -30.51,-13.2 -44.01,-43.26 -44.01,-78.64l160.8 0c94.93,0 47.15,-138.2 -32.3,-166.67 -61.01,-21.86 -133.67,-10.77 -176.96,41.91 -3.33,4.05 -5.44,6.34 -8.34,10.74 -14.43,21.92 -24.98,60.96 -24.98,89.49z"/>
   <path class="fil1" d="M5526.95 1842.21c23.11,0 42.23,0.13 58.96,22.81 14.87,20.16 12.55,40.77 17.35,50.78l-136.27 0c0,-35.46 24.92,-73.59 59.96,-73.59zm-141.72 95.39c0,148.46 125.37,187.35 225.87,149.56 61,-22.94 88.43,-95.05 33.05,-95.05 -12.53,0 -17.04,7.33 -23.83,14.32 -27.44,28.23 -67.87,52.27 -109.31,34.33 -5.34,-2.31 -18.46,-10.76 -22.67,-15.48 -15.52,-17.42 -21.34,-36.31 -21.34,-63.15l160.8 0c88.27,0 45.61,-109.76 9.4,-140.22 -63.35,-53.29 -164.76,-50.12 -218.65,15.46 -21.32,25.94 -33.31,64.88 -33.31,100.23z"/>
   <path class="fil1" d="M6674.39 1943.06c0,-24.71 7.63,-50.67 17.43,-67.06 31.14,-52.14 132.47,-44.72 132.47,64.33 0,136.77 -149.9,132.54 -149.9,2.72zm-79.04 0c0,109.22 86.14,171.89 187.02,154.31 10.11,-1.76 19.95,-5.52 29.37,-8.78 27.52,-9.54 49.31,-28.2 65.52,-51.68 33.6,-48.67 35.07,-132.13 2.14,-184.39 -40.39,-64.08 -126.85,-81.64 -193.04,-55.57 -29.3,11.54 -48.1,27.76 -64.91,52.29 -16.48,24.03 -26.1,62.15 -26.1,93.82z"/>
   <path class="fil1" d="M223.15 1705.94c0,27.32 32.9,71.19 47.97,93.76l67.46 104.25c6.82,11.05 7.48,10.89 7.35,28.08 -0.16,23.66 -0.13,47.32 -0.13,70.99 0,45.93 -2.85,94.46 41.56,96.8 18.96,1 34.39,-9.59 41.04,-25.11 7.94,-18.52 4.81,-107.81 4.58,-134.42 -0.26,-30.77 0.02,-22.91 19.15,-51.72l40.88 -62.69c20.45,-30.81 65.38,-88.14 65.38,-122.68 0,-22.8 -22.15,-29.98 -43.61,-29.98 -23.48,0 -51.28,55.28 -65.94,78.51 -6.3,9.99 -51.7,80.71 -53.98,90.47 -10.15,-2.71 -5.78,-2.85 -16.36,-19.07l-70.86 -114.48c-21.38,-32.01 -21.03,-35.43 -51.78,-35.43 -16.37,0 -32.71,16.33 -32.71,32.7z"/>
   <path class="fil1" d="M634.7 1953.96l0 -21.8c0,-116.23 147.18,-116.23 147.18,0 0,34.18 0.77,53.93 -18.99,81.86 -33.02,46.67 -128.19,35.53 -128.19,-60.06zm-79.04 -27.26c0,54.32 2.54,93.21 45.58,134.3 25.72,24.56 70.87,40.66 106.79,39.6 88.35,-2.63 152.88,-61.83 152.88,-143.91 0,-54.43 -4.4,-91.1 -44.22,-130.2 -12.83,-12.61 -26.93,-21.04 -44.88,-28.72 -33.57,-14.35 -59.49,-13.41 -93.11,-9.67 -66.92,7.42 -123.04,70.24 -123.04,138.61z"/>
   <path class="fil1" d="M2231.83 1847.67c0,52.7 -6.93,174.93 17.85,211.09 31.83,46.46 99.82,50.02 146.59,24.2 18.71,-10.33 22.84,-21.24 37.25,-30.89 0,61.48 76.31,70.86 76.31,-8.18l0 -196.23c0,-18.23 -2.22,-36.13 -10.33,-46.91 -8.63,-11.47 -23.79,-17.68 -39.41,-13.97 -43.95,10.44 -27.2,77.98 -29.21,145.45l-4.27 52.97c-11.44,53.17 -77.91,68.85 -100.69,35.45 -7.78,-11.41 -12.29,-26.68 -12.44,-44.79 -0.31,-37.18 0.07,-74.65 0.12,-111.86 0.05,-38.91 0.01,-71.31 -34.24,-77.72 -37.26,-6.98 -47.53,28.87 -47.53,61.37z"/>
   <path class="fil1" d="M5049.99 1834.04l0 215.31c0,34.21 22.07,60.19 55.35,47.3 46.05,-17.83 10.66,-126.19 28.39,-197.95 14.44,-58.43 108.37,-81.11 112.52,6.17 1.61,33.74 -0.03,72.07 -0.03,106.33 -0,36.92 -3.01,72.49 22.16,84.17 28.87,13.39 56.88,-4.91 56.88,-37.83l0 -171.7c0,-85.87 -85.7,-116.58 -148.87,-91.63 -26.15,10.33 -39.19,29.83 -50.09,37.13 -3.41,-14.64 -6.01,-44.32 -38.46,-45.46 -26.31,-0.92 -37.85,20.74 -37.85,48.19z"/>
   <path class="fil1" d="M918.15 1825.86l0 174.43c0,55.64 37.91,98.12 89.94,98.12 81.61,0 77.98,-25.54 109.02,-46.33 1.01,12.15 3.44,25.52 10.08,33.54 22.12,26.73 66.24,17.3 66.24,-33.54l0 -215.31c0,-17.85 -4.5,-31.34 -14.09,-40.41 -10.78,-10.19 -25.51,-13.81 -41.35,-6.94 -46.44,20.13 -10.75,116.71 -27.77,198.52 -10.85,52.18 -103.63,82.66 -112.68,-4.33 -7.13,-68.51 15.7,-169.77 -20.44,-192.16 -27,-16.72 -58.93,2.48 -58.93,34.41z"/>
   <path class="fil1" d="M4393.15 1825.86l0 231.66c0,30.91 31.73,53.67 58.96,37.17 38.98,-23.63 9.09,-124.03 23.48,-194.57 6.37,-31.2 30.29,-52.45 67.47,-52.45 75.14,0 37.25,156.83 46.9,217.47 7.74,48.63 78.47,46.8 78.47,-10.33l0 -152.63c0,-53.13 -18.64,-97.54 -70.75,-111.86 -78.69,-21.62 -113.28,31.9 -130.94,43.73 0,-69.89 -73.59,-57.49 -73.59,-8.18z"/>
   <path class="fil1" d="M1626.78 1714.11c0,11.54 2.65,17.96 8.64,24.07 4.97,5.07 14.69,11.36 24.07,11.36l100.84 0 0 305.26c0,59.62 84.49,59.76 84.49,0l0 -305.26 100.84 0c39.02,0 53.68,-70.86 -13.63,-70.86l-258.93 0c-24.81,0 -46.33,11.25 -46.33,35.43z"/>
   <path class="fil2 str0" d="M1232.93 975.21c-20.59,7.19 -15.72,13.58 -33.74,46.87 -96.57,178.37 -325.33,243.89 -494.28,147.66 -71.58,-40.78 -121.14,-89.6 -157.31,-164.36 -10.77,-22.26 -39.59,-26.95 -49.92,-5.95 -10.13,20.58 8.7,45.56 17.37,60.25 39.39,66.77 91.2,118.39 163.55,158 73.17,40.06 174.26,60.69 269.68,44.19 137.2,-23.72 269.45,-123.75 315.77,-248.58 9.2,-24.79 -9.04,-45.8 -31.11,-38.09z"/>
   <path class="fil1" d="M2569.8 1874.92c0,17.25 3.49,29.22 12.72,41.79 21.81,29.72 61.57,39.6 97.25,49.93 21.54,6.24 59.02,13.35 68.96,29.18 17.61,28.05 -9.34,50.81 -37.2,50.81l-19.08 0c-62.03,0 -58.52,-62.69 -89.94,-62.69 -48.45,0 -50.8,64.85 12.69,99.06 44.04,23.73 136.52,23 178.94,-8.26 45.91,-33.83 67.86,-120.09 -39.31,-155.91 -39.21,-13.1 -111.44,-19.19 -111.44,-52.08 0,-31.78 66.83,-45.06 96.6,-6.66 66.51,85.79 133.08,-43.18 -8.57,-70.48 -71.89,-13.85 -161.62,11.08 -161.62,85.31z"/>
   <path class="fil1" d="M2905.04 1749.55l0 43.61c-11.14,0 -22.54,0.02 -31.74,6.42 -14.68,10.2 -25.48,50.81 31.74,50.81l0 133.55c0,55.34 6.08,99.68 49.49,111.31 37.58,10.08 116.76,7.43 116.76,-35 0,-13.02 -12.35,-25 -22.43,-26.81 -33.15,-5.95 -64.78,38.59 -64.78,-54.95l0 -128.1c20.12,0 62.69,2.41 62.69,-27.26 0,-35.37 -37.93,-29.98 -62.69,-29.98 0,-31.03 5.6,-83.28 -10.09,-98.93 -16.86,-16.82 -68.95,-31 -68.95,55.32z"/>
   <path class="fil0" d="M3346.56 501.28c0,65.8 46.8,109.02 103.57,109.02 56.77,0 103.57,-43.22 103.57,-109.02 0,-52.12 -46.85,-98.12 -106.3,-98.12 -51.75,0 -100.84,46.96 -100.84,98.12z"/>
   <path class="fil1" d="M1997.44 1836.76l0 218.04c0,54.66 65.91,59.09 77.52,14.83 3.84,-14.65 1.52,-34.22 1.52,-50.26 0,-35.13 -0.74,-68.14 3.39,-100.18 12.47,-96.6 70.98,-55.18 100.18,-55.18 44.07,0 45.92,-76.13 -38.39,-78.56 -44.92,-1.29 -56.03,34.43 -67.9,43.12 -1.3,-58.32 -76.31,-60.38 -76.31,8.18z"/>
   <path class="fil1" d="M4742.02 1714.11l0 343.41c0,53.46 79.04,61.06 79.04,-5.45l0 -335.23c0,-57.5 -79.04,-58.88 -79.04,-2.73z"/>
   <path class="fil1" d="M1267.02 1825.86l0 234.39c0,31.46 28.63,46.91 54.58,35.57 40.8,-17.83 17.24,-106.88 26.99,-177.49 13.12,-95.04 65.55,-54.32 101.04,-54.32 36.55,0 53.15,-70.88 -38.87,-78.39 -26.03,-2.12 -41.2,11.25 -55.87,27.26 -5.5,6 -7.86,11.4 -14.28,15.7 0,-61.87 -73.59,-52.69 -73.59,-2.72z"/>
   <path class="fil1" d="M4897.37 1828.58l0 223.49c0,64.13 79.04,63.97 79.04,0l0 -223.49c0,-54.79 -79.04,-57.72 -79.04,0z"/>
   <path class="fil2 str0" d="M1224.41 684.88c-60.23,17.96 -41.37,118.73 29.77,100.5 65.03,-16.66 40.08,-121.33 -29.77,-100.5z"/>
   <path class="fil2 str0" d="M504.28 685.85c-64.39,22.6 -32.7,119.13 32.48,99.19 65.37,-20 35.67,-123.1 -32.48,-99.19z"/>
   <path class="fil1" d="M4897.37 1711.39c0,57.98 79.04,51.3 79.04,2.72 0,-53.87 -79.04,-46.82 -79.04,-2.72z"/>
  </g>
 </g>
</svg>
